<?xml version="1.0" standalone="no"?>
<!DOCTYPE svg PUBLIC "-//W3C//DTD SVG 20010904//EN"
 "http://www.w3.org/TR/2001/REC-SVG-20010904/DTD/svg10.dtd">
<svg version="1.0" xmlns="http://www.w3.org/2000/svg"
 width="1600.000000pt" height="605.000000pt" viewBox="0 0 1600.000000 605.000000"
 preserveAspectRatio="xMidYMid meet">

<g transform="translate(0.000000,605.000000) scale(0.100000,-0.100000)"
fill="#000000" stroke="none">
<path d="M0 3025 l0 -3025 8000 0 8000 0 0 3025 0 3025 -8000 0 -8000 0 0
-3025z m7300 86 l95 -1 55 -77 c30 -42 72 -101 93 -130 l39 -53 -134 0 -133 0
-92 127 c-50 71 -90 130 -88 133 2 3 19 5 37 4 18 -1 76 -2 128 -3z m90 -598
c16 -9 39 -30 50 -46 42 -56 -5 -79 -55 -27 -64 67 -195 41 -195 -38 0 -33 42
-60 117 -76 114 -24 153 -61 153 -149 0 -97 -99 -152 -224 -125 -87 18 -164
117 -99 126 14 2 28 -7 42 -27 56 -78 221 -56 221 29 0 54 -35 79 -141 100
-95 19 -145 83 -125 163 20 82 168 122 256 70z m1960 -88 l5 -100 142 -3 142
-3 3 103 c3 102 3 103 28 103 l25 0 0 -235 c0 -222 -1 -235 -19 -238 -29 -6
-36 16 -36 116 l0 92 -145 0 -144 0 -3 -102 c-3 -102 -3 -103 -28 -103 l-25 0
-3 225 c-1 123 0 231 3 238 3 7 15 12 27 10 22 -3 23 -9 28 -103z m-422 8 c3
-50 5 -53 30 -53 36 0 55 -13 50 -36 -2 -14 -13 -20 -41 -22 l-37 -3 0 -85 c0
-71 3 -87 20 -104 11 -11 28 -20 39 -20 10 0 24 -7 31 -16 11 -12 11 -18 -2
-31 -25 -25 -80 -9 -117 33 l-31 35 0 173 c0 95 3 176 7 180 4 4 16 6 28 4 17
-3 20 -11 23 -55z m-1173 -53 l39 -20 43 21 c59 28 109 19 154 -27 l34 -35 0
-132 0 -132 -25 0 -25 0 -5 120 c-3 66 -9 126 -13 133 -24 36 -106 32 -123 -6
-4 -9 -10 -69 -13 -132 -5 -102 -8 -115 -25 -118 -30 -6 -36 16 -36 134 0 93
-3 113 -17 127 -31 28 -66 30 -96 7 -26 -21 -27 -24 -27 -133 0 -119 -6 -141
-36 -135 -17 3 -19 15 -22 128 -3 142 8 173 69 203 45 22 77 21 124 -3z m1005
5 c19 -23 5 -42 -36 -50 -23 -4 -51 -20 -71 -40 -31 -31 -33 -38 -34 -101 -1
-38 -1 -77 0 -86 3 -24 -17 -58 -34 -58 -26 0 -35 37 -31 123 6 146 55 205
187 226 4 1 12 -6 19 -14z m-418 -5 c21 -6 51 -27 71 -49 41 -45 50 -86 45
-201 -3 -65 -6 -75 -22 -78 -11 -3 -25 3 -32 13 -11 15 -15 15 -43 1 -37 -20
-101 -20 -146 -2 -18 8 -48 34 -65 58 -29 39 -31 48 -28 103 4 74 30 114 90
144 48 23 76 26 130 11z m1704 -9 c103 -47 131 -173 58 -261 -36 -42 -74 -60
-129 -60 -111 0 -194 104 -166 208 30 108 136 159 237 113z m245 -91 c3 -58 9
-113 13 -122 19 -41 92 -61 138 -37 33 18 48 71 48 168 0 73 3 90 16 95 34 13
44 -12 44 -111 0 -106 -12 -143 -59 -188 -30 -27 -38 -30 -101 -30 -67 0 -71
2 -106 36 -42 42 -53 84 -54 195 0 82 10 107 40 102 12 -3 16 -25 21 -108z
m551 98 c60 -18 90 -78 39 -78 -9 0 -26 7 -37 15 -23 17 -105 20 -122 3 -29
-29 -2 -51 95 -77 95 -26 128 -101 70 -159 -25 -25 -34 -27 -106 -27 -65 0
-85 4 -108 21 -35 26 -37 58 -5 62 13 2 31 -3 40 -11 24 -21 82 -30 115 -18
23 9 28 16 25 39 -2 22 -10 29 -48 41 -82 24 -133 54 -143 83 -12 38 10 79 53
100 41 21 78 23 132 6z m373 -8 c57 -28 89 -73 90 -130 l0 -45 -91 -3 c-78 -2
-93 0 -98 14 -11 29 13 43 77 46 l62 3 -36 38 c-43 43 -85 49 -137 17 -62 -38
-70 -114 -18 -166 38 -38 86 -45 136 -19 35 18 62 10 58 -18 -6 -43 -116 -72
-181 -48 -36 14 -84 66 -97 107 -19 56 -5 119 37 165 54 60 126 74 198 39z"/>
<path d="M8214 2296 c-29 -29 -34 -41 -34 -79 0 -95 106 -143 179 -81 79 66
28 194 -77 194 -25 0 -43 -9 -68 -34z"/>
<path d="M9914 2311 c-93 -57 -49 -201 61 -201 53 0 91 28 106 79 29 98 -79
176 -167 122z"/>
</g>
</svg>
